<?xml version="1.0" standalone="no"?>
<!DOCTYPE svg PUBLIC "-//W3C//DTD SVG 20010904//EN"
 "http://www.w3.org/TR/2001/REC-SVG-20010904/DTD/svg10.dtd">
<svg version="1.0" xmlns="http://www.w3.org/2000/svg"
 viewBox="-20 330 820 130"
 preserveAspectRatio="xMidYMid meet">

<g transform="translate(0.000000,800.000000) scale(0.100000,-0.100000)"
fill="#000000" stroke="none">
<path d="M5494 4548 c-9 -18 -32 -60 -50 -94 l-34 -60 35 -17 34 -16 62 85
c66 92 66 87 7 119 -36 20 -35 20 -54 -17z"/>
<path d="M783 4539 c-143 -14 -314 -73 -393 -137 l-24 -19 23 -104 c25 -116
73 -381 69 -384 -2 -1 -43 -9 -93 -19 -108 -21 -168 -46 -214 -89 -91 -86 -78
-193 29 -249 130 -69 295 -4 369 144 40 79 40 132 2 333 -16 83 -27 153 -25
157 19 31 365 98 505 98 45 0 48 -2 58 -32 15 -45 51 -262 51 -304 0 -27 -5
-35 -22 -38 -13 -3 -61 -13 -108 -22 -150 -28 -220 -95 -220 -207 0 -68 28
-107 97 -133 149 -57 290 16 337 176 40 135 -1 449 -97 729 -30 88 -35 96 -62
102 -41 9 -182 8 -282 -2z"/>
<path d="M7540 4491 c-49 -15 -86 -40 -126 -83 -44 -47 -83 -133 -68 -147 5
-5 30 -15 56 -24 l47 -15 11 54 c21 100 98 155 194 140 85 -14 126 -61 126
-146 0 -69 -18 -98 -96 -160 -76 -60 -96 -98 -92 -173 3 -50 4 -52 33 -52 28
0 30 3 35 45 3 25 9 51 13 58 5 7 42 35 82 62 41 27 85 65 99 83 46 60 51 170
12 244 -37 71 -137 123 -236 122 -36 0 -76 -4 -90 -8z"/>
<path d="M1617 4483 c-4 -3 -7 -190 -7 -415 l0 -408 280 0 280 0 0 40 0 40
-225 0 -225 0 0 160 0 160 195 0 195 0 0 40 0 40 -195 0 -195 0 0 130 0 130
220 0 220 0 0 45 0 45 -268 0 c-148 0 -272 -3 -275 -7z"/>
<path d="M2388 4280 c-84 -25 -128 -81 -128 -161 0 -103 47 -142 214 -178 46
-10 96 -25 111 -35 72 -47 44 -152 -48 -177 -91 -24 -189 23 -203 98 l-7 35
-50 -5 c-27 -4 -52 -8 -54 -11 -2 -2 5 -27 17 -55 26 -59 81 -113 136 -132 50
-17 168 -17 217 0 87 30 145 119 134 203 -11 84 -57 119 -197 154 -156 39
-189 62 -175 125 10 45 56 69 131 69 72 0 106 -21 124 -75 6 -19 13 -35 15
-35 2 0 27 5 54 11 l51 11 -16 36 c-37 89 -110 132 -224 131 -41 0 -87 -4
-102 -9z"/>
<path d="M3002 4264 c-105 -52 -162 -156 -162 -293 0 -110 20 -169 80 -234 28
-31 68 -62 90 -71 153 -61 317 -1 387 142 25 51 28 68 28 157 0 86 -4 107 -26
155 -53 113 -143 170 -270 170 -61 0 -85 -5 -127 -26z m218 -74 c62 -31 93
-94 98 -197 6 -105 -10 -164 -57 -213 -87 -92 -224 -71 -286 42 -50 92 -42
249 16 323 53 66 150 86 229 45z"/>
<path d="M3950 4264 c-52 -29 -71 -50 -107 -119 -35 -66 -44 -221 -19 -308 31
-105 111 -180 208 -193 63 -9 148 18 192 60 l36 33 0 -153 0 -154 50 0 50 0 0
425 0 425 -45 0 -45 0 0 -50 0 -51 -32 37 c-45 51 -99 74 -178 74 -51 0 -74
-6 -110 -26z m208 -68 c15 -8 37 -25 49 -38 72 -76 81 -265 17 -361 -74 -112
-238 -92 -288 34 -37 92 -29 232 17 301 48 71 138 99 205 64z"/>
<path d="M5352 4277 c-51 -16 -126 -89 -153 -149 -20 -45 -24 -69 -24 -163 0
-102 2 -114 30 -169 37 -73 92 -119 169 -141 120 -35 252 7 314 99 17 26 32
52 32 56 0 8 -89 36 -93 29 -1 -2 -9 -17 -18 -34 -52 -94 -199 -110 -274 -30
-32 33 -55 92 -55 138 l0 27 228 2 227 3 -3 60 c-5 125 -76 237 -169 269 -52
18 -160 20 -211 3z m188 -89 c37 -26 68 -78 77 -132 l6 -36 -172 0 c-138 0
-171 3 -171 14 0 24 30 99 48 119 53 61 151 76 212 35z"/>
<path d="M6892 4264 c-63 -31 -105 -80 -133 -154 -18 -46 -20 -72 -17 -160 3
-89 8 -113 30 -156 29 -56 84 -109 133 -130 88 -36 213 -25 284 27 37 27 101
102 101 119 0 4 -21 13 -47 21 -39 10 -48 10 -51 -1 -3 -7 -20 -30 -38 -50
-62 -69 -178 -77 -243 -17 -28 26 -56 86 -65 140 l-7 37 232 0 232 0 -6 73
c-14 179 -111 277 -278 277 -61 0 -85 -5 -127 -26z m200 -70 c18 -9 40 -26 50
-38 20 -24 50 -114 42 -127 -3 -5 -79 -9 -170 -9 l-164 0 0 27 c0 43 39 112
78 138 44 30 116 34 164 9z"/>
<path d="M4523 4048 c3 -158 8 -245 17 -271 50 -143 242 -181 355 -72 l45 44
0 -44 0 -45 45 0 45 0 0 310 0 310 -44 0 -44 0 -4 -197 c-3 -190 -4 -200 -30
-255 -41 -89 -130 -128 -211 -95 -66 28 -72 51 -75 315 l-3 232 -51 0 -50 0 5
-232z"/>
<path d="M6112 4223 c12 -32 67 -179 124 -327 l103 -269 -23 -56 -22 -56 -57
-3 -57 -3 0 -39 0 -40 70 0 c111 0 105 -9 274 435 80 209 148 388 151 398 6
15 0 17 -48 17 l-54 0 -21 -62 c-49 -147 -152 -440 -160 -454 -10 -17 -15 -4
-92 221 -23 66 -55 159 -72 208 l-31 87 -53 0 -54 0 22 -57z"/>
<path d="M7572 3795 c-24 -20 -32 -35 -32 -60 0 -47 8 -64 41 -80 42 -22 67
-18 100 14 36 36 38 79 7 115 -35 40 -78 43 -116 11z"/>
</g>
</svg>
